<?xml version="1.0" encoding="UTF-8"?>
<svg xmlns="http://www.w3.org/2000/svg" xmlns:xlink="http://www.w3.org/1999/xlink" width="50pt" height="50pt" viewBox="0 0 50 50" version="1.1">
<g id="surface1">
<path style=" stroke:none;fill-rule:nonzero;fill:rgb(0%,0%,0%);fill-opacity:1;" d="M 14.726562 32.167969 C 14.726562 31.339844 14.152344 30.84375 13.136719 30.84375 C 12.71875 30.84375 12.4375 30.882812 12.292969 30.921875 L 12.292969 33.585938 C 12.464844 33.625 12.679688 33.640625 12.976562 33.640625 C 14.058594 33.640625 14.726562 33.09375 14.726562 32.167969 Z M 14.726562 32.167969 "/>
<path style=" stroke:none;fill-rule:nonzero;fill:rgb(0%,0%,0%);fill-opacity:1;" d="M 21.023438 30.871094 C 20.566406 30.871094 20.273438 30.910156 20.097656 30.949219 L 20.097656 36.851562 C 20.273438 36.890625 20.554688 36.890625 20.808594 36.890625 C 22.65625 36.90625 23.859375 35.886719 23.859375 33.734375 C 23.871094 31.859375 22.773438 30.871094 21.023438 30.871094 Z M 21.023438 30.871094 "/>
<path style=" stroke:none;fill-rule:nonzero;fill:rgb(0%,0%,0%);fill-opacity:1;" d="M 32.714844 0 L 12.632812 0 C 9.699219 0 7.3125 2.390625 7.3125 5.320312 L 7.3125 25 L 6.789062 25 C 5.605469 25 4.648438 25.960938 4.648438 27.144531 L 4.648438 40.148438 C 4.648438 41.335938 5.605469 42.292969 6.789062 42.292969 L 7.3125 42.292969 L 7.3125 44.679688 C 7.3125 47.613281 9.699219 50 12.632812 50 L 40.035156 50 C 42.964844 50 45.351562 47.613281 45.351562 44.679688 L 45.351562 12.59375 Z M 10.273438 29.492188 C 10.902344 29.386719 11.785156 29.304688 13.027344 29.304688 C 14.285156 29.304688 15.183594 29.546875 15.785156 30.027344 C 16.359375 30.480469 16.75 31.230469 16.75 32.113281 C 16.75 32.996094 16.453125 33.746094 15.917969 34.253906 C 15.222656 34.910156 14.191406 35.207031 12.988281 35.207031 C 12.71875 35.207031 12.480469 35.191406 12.292969 35.167969 L 12.292969 38.390625 L 10.273438 38.390625 Z M 40.035156 46.742188 L 12.632812 46.742188 C 11.496094 46.742188 10.570312 45.816406 10.570312 44.679688 L 10.570312 42.292969 L 36.113281 42.292969 C 37.300781 42.292969 38.257812 41.335938 38.257812 40.148438 L 38.257812 27.144531 C 38.257812 25.960938 37.300781 25 36.113281 25 L 10.570312 25 L 10.570312 5.320312 C 10.570312 4.1875 11.496094 3.261719 12.632812 3.261719 L 31.496094 3.242188 L 31.496094 10.214844 C 31.496094 12.25 33.148438 13.90625 35.1875 13.90625 L 42.015625 13.886719 L 42.09375 44.679688 C 42.09375 45.816406 41.167969 46.742188 40.035156 46.742188 Z M 18.050781 38.351562 L 18.050781 29.492188 C 18.800781 29.371094 19.777344 29.304688 20.808594 29.304688 C 22.519531 29.304688 23.632812 29.613281 24.5 30.269531 C 25.4375 30.964844 26.027344 32.074219 26.027344 33.667969 C 26.027344 35.394531 25.398438 36.585938 24.527344 37.320312 C 23.578125 38.109375 22.132812 38.484375 20.367188 38.484375 C 19.308594 38.484375 18.558594 38.417969 18.050781 38.351562 Z M 32.65625 33.105469 L 32.65625 34.765625 L 29.417969 34.765625 L 29.417969 38.390625 L 27.371094 38.390625 L 27.371094 29.371094 L 32.882812 29.371094 L 32.882812 31.042969 L 29.417969 31.042969 L 29.417969 33.105469 Z M 32.65625 33.105469 "/>
</g>
</svg>
