<?xml version="1.0" encoding="UTF-8"?>
<svg xmlns="http://www.w3.org/2000/svg" xmlns:xlink="http://www.w3.org/1999/xlink" width="50pt" height="50pt" viewBox="0 0 50 50" version="1.1">
<g id="surface1">
<path style=" stroke:none;fill-rule:nonzero;fill:rgb(0%,0%,0%);fill-opacity:1;" d="M 43.921875 10.507812 L 43.257812 9.839844 L 34.554688 1.140625 L 33.890625 0.472656 C 33.589844 0.171875 33.171875 0 32.746094 0 L 7.726562 0 C 6.703125 0 5.601562 0.789062 5.601562 2.523438 L 5.601562 48.277344 C 5.601562 48.996094 6.328125 49.699219 7.1875 49.921875 C 7.230469 49.933594 7.273438 49.949219 7.316406 49.957031 C 7.453125 49.984375 7.589844 50 7.726562 50 L 42.273438 50 C 42.410156 50 42.546875 49.984375 42.683594 49.957031 C 42.726562 49.949219 42.769531 49.933594 42.8125 49.921875 C 43.671875 49.699219 44.398438 48.996094 44.398438 48.277344 L 44.398438 12.050781 C 44.398438 11.390625 44.316406 10.902344 43.921875 10.507812 Z M 41.324219 10.34375 L 34.050781 10.34375 L 34.050781 3.074219 Z M 7.726562 48.277344 C 7.664062 48.277344 7.609375 48.253906 7.554688 48.234375 C 7.421875 48.167969 7.328125 48.035156 7.328125 47.875 L 7.328125 35.34375 L 42.671875 35.34375 L 42.671875 47.875 C 42.671875 48.035156 42.578125 48.167969 42.445312 48.234375 C 42.390625 48.253906 42.335938 48.277344 42.273438 48.277344 Z M 7.328125 33.621094 L 7.328125 2.523438 C 7.328125 2.335938 7.355469 1.722656 7.726562 1.722656 L 32.378906 1.722656 C 32.347656 1.832031 32.328125 1.945312 32.328125 2.0625 L 32.328125 12.070312 L 42.335938 12.070312 C 42.453125 12.070312 42.5625 12.046875 42.671875 12.019531 C 42.671875 12.03125 42.671875 12.035156 42.671875 12.050781 L 42.671875 33.621094 Z M 7.328125 33.621094 "/>
<path style=" stroke:none;fill-rule:nonzero;fill:rgb(0%,0%,0%);fill-opacity:1;" d="M 19 38.574219 C 18.714844 38.335938 18.390625 38.160156 18.03125 38.042969 C 17.667969 37.925781 17.300781 37.867188 16.933594 37.867188 L 14.433594 37.867188 L 14.433594 46.550781 L 15.851562 46.550781 L 15.851562 43.417969 L 16.898438 43.417969 C 17.355469 43.417969 17.773438 43.351562 18.148438 43.214844 C 18.523438 43.082031 18.847656 42.894531 19.113281 42.652344 C 19.382812 42.40625 19.589844 42.105469 19.738281 41.75 C 19.890625 41.390625 19.964844 40.992188 19.964844 40.550781 C 19.964844 40.136719 19.875 39.761719 19.699219 39.425781 C 19.523438 39.09375 19.289062 38.808594 19 38.574219 Z M 18.464844 41.441406 C 18.378906 41.683594 18.265625 41.867188 18.125 42 C 17.984375 42.136719 17.828125 42.230469 17.660156 42.289062 C 17.488281 42.347656 17.316406 42.378906 17.144531 42.378906 L 15.847656 42.378906 L 15.847656 38.9375 L 16.910156 38.9375 C 17.269531 38.9375 17.5625 38.996094 17.78125 39.109375 C 18 39.222656 18.171875 39.363281 18.292969 39.53125 C 18.417969 39.703125 18.496094 39.878906 18.535156 40.0625 C 18.574219 40.246094 18.59375 40.410156 18.59375 40.550781 C 18.59375 40.90625 18.550781 41.203125 18.464844 41.441406 Z M 18.464844 41.441406 "/>
<path style=" stroke:none;fill-rule:nonzero;fill:rgb(0%,0%,0%);fill-opacity:1;" d="M 27.546875 39.136719 C 27.179688 38.753906 26.722656 38.445312 26.167969 38.214844 C 25.613281 37.980469 24.96875 37.867188 24.242188 37.867188 L 21.625 37.867188 L 21.625 46.550781 L 24.910156 46.550781 C 25.023438 46.550781 25.191406 46.539062 25.417969 46.511719 C 25.648438 46.484375 25.898438 46.421875 26.171875 46.320312 C 26.449219 46.222656 26.734375 46.074219 27.027344 45.878906 C 27.324219 45.683594 27.585938 45.414062 27.824219 45.070312 C 28.058594 44.730469 28.253906 44.304688 28.40625 43.796875 C 28.558594 43.292969 28.636719 42.679688 28.636719 41.964844 C 28.636719 41.445312 28.546875 40.941406 28.367188 40.449219 C 28.183594 39.960938 27.910156 39.523438 27.546875 39.136719 Z M 26.515625 44.59375 C 26.089844 45.207031 25.398438 45.515625 24.441406 45.515625 L 23.039062 45.515625 L 23.039062 38.9375 L 23.863281 38.9375 C 24.539062 38.9375 25.089844 39.027344 25.515625 39.203125 C 25.9375 39.378906 26.273438 39.609375 26.523438 39.898438 C 26.769531 40.183594 26.933594 40.503906 27.023438 40.859375 C 27.109375 41.210938 27.152344 41.570312 27.152344 41.929688 C 27.152344 43.09375 26.941406 43.984375 26.515625 44.59375 Z M 26.515625 44.59375 "/>
<path style=" stroke:none;fill-rule:nonzero;fill:rgb(0%,0%,0%);fill-opacity:1;" d="M 30.6875 46.550781 L 32.125 46.550781 L 32.125 42.640625 L 35.757812 42.640625 L 35.757812 41.671875 L 32.125 41.671875 L 32.125 38.9375 L 36.121094 38.9375 L 36.121094 37.867188 L 30.6875 37.867188 Z M 30.6875 46.550781 "/>
<path style=" stroke:none;fill-rule:nonzero;fill:rgb(0%,0%,0%);fill-opacity:1;" d="M 33.128906 19.792969 C 32.335938 19.792969 31.363281 19.898438 30.234375 20.101562 C 28.65625 18.429688 27.007812 15.984375 25.847656 13.582031 C 27 8.730469 26.421875 8.042969 26.167969 7.71875 C 25.898438 7.375 25.515625 6.816406 25.082031 6.816406 C 24.898438 6.816406 24.402344 6.898438 24.207031 6.964844 C 23.707031 7.128906 23.441406 7.511719 23.226562 8.011719 C 22.617188 9.4375 23.453125 11.867188 24.316406 13.738281 C 23.578125 16.664062 22.34375 20.164062 21.050781 23.003906 C 17.78125 24.5 16.046875 25.972656 15.890625 27.375 C 15.832031 27.882812 15.953125 28.632812 16.851562 29.308594 C 17.097656 29.492188 17.382812 29.589844 17.683594 29.589844 C 18.4375 29.589844 19.199219 29.011719 20.082031 27.773438 C 20.726562 26.867188 21.417969 25.636719 22.136719 24.105469 C 24.445312 23.097656 27.300781 22.183594 29.746094 21.675781 C 31.109375 22.980469 32.328125 23.644531 33.378906 23.644531 C 34.148438 23.644531 34.8125 23.289062 35.292969 22.617188 C 35.789062 21.917969 35.90625 21.292969 35.628906 20.753906 C 35.296875 20.109375 34.476562 19.792969 33.128906 19.792969 Z M 17.703125 28.132812 C 17.300781 27.824219 17.324219 27.613281 17.332031 27.535156 C 17.386719 27.058594 18.136719 26.207031 19.976562 25.171875 C 18.582031 27.75 17.832031 28.09375 17.703125 28.132812 Z M 24.773438 8.371094 C 24.808594 8.359375 25.671875 9.320312 24.855469 11.144531 C 23.625 9.886719 24.6875 8.402344 24.773438 8.371094 Z M 22.992188 22.1875 C 23.867188 20.101562 24.679688 17.800781 25.296875 15.667969 C 26.265625 17.40625 27.425781 19.09375 28.589844 20.445312 C 26.75 20.878906 24.792969 21.488281 22.992188 22.1875 Z M 34.113281 21.773438 C 33.847656 22.148438 33.269531 22.15625 33.070312 22.15625 C 32.609375 22.15625 32.4375 21.882812 31.734375 21.339844 C 32.316406 21.265625 32.859375 21.25 33.296875 21.25 C 34.0625 21.25 34.203125 21.359375 34.308594 21.417969 C 34.289062 21.480469 34.242188 21.59375 34.113281 21.773438 Z M 34.113281 21.773438 "/>
</g>
</svg>
