<?xml version="1.0" encoding="UTF-8"?>
<svg xmlns="http://www.w3.org/2000/svg" xmlns:xlink="http://www.w3.org/1999/xlink" width="50pt" height="50pt" viewBox="0 0 50 50" version="1.1">
<g id="surface1">
<path style=" stroke:none;fill-rule:nonzero;fill:rgb(98.039216%,83.529412%,36.078431%);fill-opacity:1;" d="M 25 0 C 38.808594 0 50 11.191406 50 25 C 50 38.808594 38.808594 50 25 50 C 11.191406 50 0 38.808594 0 25 C 0 11.191406 11.191406 0 25 0 Z M 25 0 "/>
<path style=" stroke:none;fill-rule:nonzero;fill:rgb(89.019608%,75.294118%,30.196078%);fill-opacity:1;" d="M 49.882812 27.382812 C 48.679688 40.078125 38 50 25 50 C 24.101562 50 23.203125 49.953125 22.335938 49.851562 L 12.949219 40.46875 L 37.0625 14.550781 Z M 49.882812 27.382812 "/>
<path style=" stroke:none;fill-rule:nonzero;fill:rgb(97.254902%,97.254902%,97.254902%);fill-opacity:1;" d="M 12.949219 9.53125 L 32.03125 9.53125 L 37.050781 14.5625 L 37.050781 40.46875 L 12.949219 40.46875 Z M 12.949219 9.53125 "/>
<path style=" stroke:none;fill-rule:nonzero;fill:rgb(100%,54.901961%,54.117647%);fill-opacity:1;" d="M 12.949219 9.53125 L 32.03125 9.53125 L 37.050781 14.5625 L 37.050781 16.972656 L 12.949219 16.972656 Z M 12.949219 9.53125 "/>
<path style=" stroke:none;fill-rule:nonzero;fill:rgb(92.156863%,92.54902%,92.54902%);fill-opacity:1;" d="M 32.03125 9.53125 L 32.03125 14.5625 L 37.050781 14.5625 Z M 32.03125 9.53125 "/>
<path style=" stroke:none;fill-rule:nonzero;fill:rgb(97.254902%,97.254902%,97.254902%);fill-opacity:1;" d="M 14.667969 15.488281 L 14.667969 11.125 L 16.085938 11.125 C 16.621094 11.125 16.972656 11.140625 17.128906 11.191406 C 17.382812 11.257812 17.585938 11.394531 17.753906 11.621094 C 17.917969 11.835938 18.007812 12.128906 18.007812 12.46875 C 18.007812 12.734375 17.957031 12.957031 17.859375 13.144531 C 17.761719 13.328125 17.636719 13.46875 17.488281 13.574219 C 17.34375 13.679688 17.1875 13.75 17.03125 13.78125 C 16.816406 13.820312 16.511719 13.835938 16.113281 13.835938 L 15.535156 13.835938 L 15.535156 15.488281 Z M 15.558594 11.855469 L 15.558594 13.09375 L 16.035156 13.09375 C 16.386719 13.09375 16.613281 13.078125 16.726562 13.027344 C 16.84375 12.976562 16.933594 12.910156 17.003906 12.8125 C 17.070312 12.714844 17.101562 12.597656 17.101562 12.472656 C 17.101562 12.316406 17.050781 12.179688 16.960938 12.082031 C 16.867188 11.972656 16.75 11.914062 16.613281 11.886719 C 16.503906 11.867188 16.300781 11.855469 15.976562 11.855469 C 15.976562 11.855469 15.558594 11.855469 15.558594 11.855469 Z M 18.742188 11.113281 L 20.351562 11.113281 C 20.710938 11.113281 20.984375 11.140625 21.179688 11.203125 C 21.4375 11.28125 21.660156 11.40625 21.835938 11.601562 C 22.023438 11.796875 22.15625 12.03125 22.257812 12.3125 C 22.351562 12.597656 22.402344 12.9375 22.402344 13.347656 C 22.402344 13.710938 22.351562 14.015625 22.265625 14.277344 C 22.15625 14.601562 22 14.851562 21.796875 15.046875 C 21.640625 15.195312 21.4375 15.3125 21.179688 15.398438 C 20.984375 15.457031 20.734375 15.496094 20.398438 15.496094 L 18.738281 15.496094 L 18.738281 11.113281 Z M 19.628906 11.855469 L 19.628906 14.746094 L 20.28125 14.746094 C 20.527344 14.746094 20.703125 14.734375 20.8125 14.707031 C 20.957031 14.667969 21.074219 14.609375 21.164062 14.519531 C 21.257812 14.433594 21.335938 14.296875 21.398438 14.101562 C 21.453125 13.90625 21.484375 13.640625 21.484375 13.300781 C 21.484375 12.957031 21.453125 12.703125 21.398438 12.519531 C 21.335938 12.332031 21.25 12.195312 21.152344 12.101562 C 21.046875 12 20.90625 11.933594 20.742188 11.894531 C 20.617188 11.867188 20.382812 11.855469 20.019531 11.855469 C 20.019531 11.855469 19.628906 11.855469 19.628906 11.855469 Z M 23.144531 15.488281 L 23.144531 11.125 L 26.140625 11.125 L 26.140625 11.863281 L 24.023438 11.863281 L 24.023438 12.890625 L 25.851562 12.890625 L 25.851562 13.632812 L 24.023438 13.632812 L 24.023438 15.488281 Z M 23.144531 15.488281 "/>
<path style=" stroke:none;fill-rule:nonzero;fill:rgb(98.039216%,47.058824%,46.27451%);fill-opacity:1;" d="M 32.765625 31.789062 C 33.300781 31.796875 34.121094 31.796875 34.53125 32.15625 L 34.875 32.519531 C 35.070312 32.273438 35.109375 31.816406 34.8125 31.523438 C 33.808594 30.507812 30.117188 31.09375 28.808594 31.230469 C 28.664062 31.242188 28.484375 31.085938 28.378906 31.007812 C 27.902344 30.703125 27.109375 29.992188 26.738281 29.5625 L 25.976562 28.601562 C 25.402344 27.8125 24.914062 26.863281 24.539062 25.929688 C 24.425781 25.644531 24.453125 25.683594 24.523438 25.378906 C 24.5625 25.195312 24.601562 25 24.628906 24.804688 C 24.773438 24.011719 24.875 23.132812 24.835938 22.304688 C 24.667969 22.273438 24.707031 22.363281 24.667969 22.5 L 24.148438 24.179688 C 24.132812 24.226562 24.121094 24.265625 24.101562 24.316406 C 24.09375 24.335938 24.082031 24.363281 24.082031 24.382812 L 24.042969 24.441406 C 23.953125 24.257812 23.859375 23.75 23.808594 23.515625 C 23.601562 22.566406 23.46875 21.355469 23.523438 20.390625 C 23.5625 19.734375 23.796875 18.691406 24.335938 19.597656 C 24.484375 19.832031 24.601562 20.085938 24.71875 20.359375 L 25.019531 21.199219 C 25.109375 20.859375 25.117188 20.515625 25.050781 20.164062 C 24.941406 19.65625 24.804688 19.597656 24.679688 19.394531 C 24.601562 19.355469 24.570312 19.296875 24.484375 19.238281 C 24.414062 19.1875 24.347656 19.160156 24.269531 19.109375 C 23.828125 18.972656 23.75 18.925781 23.273438 19.042969 C 23.214844 19.070312 23.15625 19.101562 23.097656 19.128906 L 22.980469 19.21875 C 22.949219 19.25 22.980469 19.226562 22.929688 19.25 C 22.902344 19.304688 22.84375 19.335938 22.746094 19.511719 C 22.558594 19.84375 22.53125 20.234375 22.519531 20.617188 C 22.472656 22.246094 22.910156 24.394531 23.410156 25.929688 C 23.457031 26.074219 23.398438 26.132812 23.351562 26.269531 C 23.144531 26.777344 22.902344 27.304688 22.6875 27.804688 C 22.1875 28.964844 20.949219 31.386719 20.324219 32.507812 C 19.902344 33.261719 19.523438 34.0625 19.09375 34.804688 C 18.867188 35.183594 18.625 35.546875 18.378906 35.878906 C 18.195312 36.132812 17.394531 37.128906 17.167969 37.324219 C 17.011719 37.453125 16.886719 37.617188 16.730469 37.753906 C 16.640625 37.832031 16.59375 37.898438 16.496094 37.976562 C 16.417969 38.046875 16.347656 38.113281 16.261719 38.183594 C 16.164062 38.261719 15.890625 38.554688 15.734375 38.445312 C 15.429688 38.132812 16.933594 36.203125 17.296875 35.851562 L 18.535156 34.570312 C 18.015625 34.746094 17.382812 35.136719 16.992188 35.410156 C 16.375 35.851562 15 37.253906 14.929688 38.066406 C 14.863281 38.90625 16.171875 39.375 17.195312 38.699219 C 17.296875 38.640625 17.46875 38.503906 17.53125 38.4375 C 18.078125 37.851562 18.359375 37.449219 18.820312 36.777344 C 19.382812 35.9375 19.890625 35.105469 20.410156 34.226562 C 20.488281 34.09375 20.605469 34.070312 20.75 34.003906 C 22.882812 32.957031 25.8125 32.304688 28.222656 32.019531 C 28.417969 32 28.476562 32.078125 28.632812 32.167969 C 28.769531 32.246094 28.875 32.304688 29.011719 32.382812 C 29.726562 32.761719 30.703125 33.191406 31.492188 33.425781 C 32.605469 33.75 34.726562 34.160156 34.832031 32.683594 L 34.714844 32.78125 C 34.1875 33.191406 32.792969 32.871094 32.253906 32.714844 C 31.816406 32.585938 30.3125 32.097656 29.988281 31.882812 C 30.90625 31.816406 31.882812 31.777344 32.765625 31.789062 Z M 25.710938 31.789062 C 24.425781 32.078125 22.890625 32.492188 21.691406 33.015625 C 21.476562 33.117188 21.171875 33.28125 20.988281 33.339844 C 21.027344 33.234375 21.125 33.078125 21.191406 32.96875 C 21.601562 32.285156 23.046875 29.5625 23.320312 28.945312 C 23.4375 28.683594 23.546875 28.4375 23.664062 28.164062 C 23.769531 27.902344 23.859375 27.617188 23.976562 27.355469 C 24.074219 27.492188 24.210938 27.824219 24.296875 27.976562 C 24.660156 28.664062 25 29.082031 25.46875 29.640625 C 25.617188 29.8125 25.78125 29.980469 25.929688 30.136719 L 26.925781 31.015625 C 27.082031 31.144531 27.324219 31.289062 27.460938 31.417969 Z M 25.710938 31.789062 "/>
</g>
</svg>
