<?xml version="1.0" encoding="UTF-8"?>
<svg xmlns="http://www.w3.org/2000/svg" xmlns:xlink="http://www.w3.org/1999/xlink" width="50pt" height="50pt" viewBox="0 0 50 50" version="1.1">
<g id="surface1">
<path style=" stroke:none;fill-rule:nonzero;fill:rgb(90.980392%,90.980392%,90.980392%);fill-opacity:1;" d="M 35.722656 1.179688 L 6.339844 1.179688 L 6.339844 48.820312 L 43.660156 48.820312 L 43.660156 9.117188 Z M 35.722656 1.179688 "/>
<path style=" stroke:none;fill-rule:nonzero;fill:rgb(98.431373%,20.392157%,28.627451%);fill-opacity:1;" d="M 37.324219 24.738281 C 36.75 23.71875 34.773438 23.398438 33.863281 23.253906 C 33.148438 23.140625 32.417969 23.105469 31.695312 23.105469 C 31.128906 23.101562 30.566406 23.132812 30.015625 23.164062 C 29.8125 23.175781 29.609375 23.195312 29.410156 23.210938 C 29.203125 22.996094 29.003906 22.777344 28.808594 22.550781 C 27.582031 21.097656 26.589844 19.445312 25.78125 17.734375 C 25.996094 16.90625 26.167969 16.039062 26.269531 15.140625 C 26.460938 13.503906 26.523438 11.636719 25.910156 10.074219 C 25.699219 9.535156 25.132812 8.878906 24.480469 9.207031 C 23.730469 9.582031 23.519531 10.644531 23.460938 11.402344 C 23.410156 12.011719 23.445312 12.625 23.546875 13.222656 C 23.652344 13.828125 23.820312 14.402344 24.003906 14.972656 C 24.171875 15.5 24.359375 16.019531 24.566406 16.535156 C 24.4375 16.941406 24.296875 17.339844 24.152344 17.730469 C 23.816406 18.617188 23.449219 19.460938 23.097656 20.269531 C 22.910156 20.671875 22.730469 21.066406 22.554688 21.449219 C 21.992188 22.683594 21.382812 23.894531 20.695312 25.066406 C 19.097656 25.628906 17.667969 26.285156 16.476562 27.050781 C 15.835938 27.464844 15.273438 27.910156 14.804688 28.402344 C 14.359375 28.867188 13.910156 29.46875 13.871094 30.136719 C 13.847656 30.511719 13.996094 30.875 14.304688 31.101562 C 14.730469 31.417969 15.289062 31.394531 15.78125 31.292969 C 17.394531 30.953125 18.628906 29.570312 19.683594 28.402344 C 20.410156 27.597656 21.234375 26.578125 22.097656 25.34375 C 22.101562 25.339844 22.101562 25.339844 22.105469 25.335938 C 23.585938 24.875 25.199219 24.488281 26.910156 24.203125 C 27.691406 24.074219 28.492188 23.96875 29.3125 23.894531 C 29.886719 24.433594 30.511719 24.921875 31.1875 25.332031 C 31.714844 25.660156 32.277344 25.933594 32.867188 26.136719 C 33.460938 26.332031 34.0625 26.492188 34.679688 26.589844 C 34.992188 26.636719 35.308594 26.65625 35.636719 26.644531 C 36.363281 26.617188 37.410156 26.335938 37.476562 25.453125 C 37.496094 25.183594 37.441406 24.945312 37.324219 24.738281 Z M 19.902344 26.359375 C 19.558594 26.886719 19.230469 27.363281 18.921875 27.78125 C 18.164062 28.8125 17.296875 30.039062 16.042969 30.496094 C 15.804688 30.582031 15.492188 30.671875 15.160156 30.652344 C 14.867188 30.636719 14.574219 30.507812 14.589844 30.171875 C 14.59375 29.996094 14.679688 29.773438 14.8125 29.554688 C 14.957031 29.3125 15.132812 29.09375 15.328125 28.890625 C 15.738281 28.457031 16.261719 28.035156 16.863281 27.644531 C 17.785156 27.046875 18.886719 26.511719 20.113281 26.03125 C 20.039062 26.140625 19.96875 26.253906 19.902344 26.359375 Z M 24.179688 13.117188 C 24.082031 12.566406 24.070312 12.007812 24.128906 11.46875 C 24.15625 11.199219 24.210938 10.9375 24.289062 10.691406 C 24.359375 10.480469 24.503906 9.972656 24.734375 9.90625 C 25.117188 9.796875 25.234375 10.617188 25.277344 10.847656 C 25.523438 12.167969 25.304688 13.636719 25.011719 14.929688 C 24.964844 15.136719 24.910156 15.339844 24.859375 15.539062 C 24.765625 15.289062 24.679688 15.035156 24.597656 14.78125 C 24.425781 14.230469 24.269531 13.667969 24.179688 13.117188 Z M 26.800781 23.535156 C 25.367188 23.765625 24 24.070312 22.71875 24.429688 C 22.871094 24.386719 23.578125 23.050781 23.734375 22.773438 C 24.476562 21.464844 25.085938 20.09375 25.519531 18.65625 C 26.289062 20.179688 27.226562 21.636719 28.371094 22.933594 C 28.480469 23.050781 28.585938 23.167969 28.695312 23.28125 C 28.050781 23.351562 27.417969 23.433594 26.800781 23.535156 Z M 36.503906 25.371094 C 36.449219 25.65625 35.84375 25.816406 35.5625 25.863281 C 34.726562 25.992188 33.84375 25.886719 33.042969 25.621094 C 32.496094 25.4375 31.964844 25.183594 31.460938 24.882812 C 30.960938 24.582031 30.496094 24.226562 30.058594 23.835938 C 30.597656 23.800781 31.144531 23.78125 31.691406 23.792969 C 32.238281 23.796875 32.792969 23.824219 33.335938 23.894531 C 34.359375 24.011719 35.507812 24.359375 36.3125 25.023438 C 36.46875 25.15625 36.519531 25.269531 36.503906 25.371094 Z M 36.503906 25.371094 "/>
<path style=" stroke:none;fill-rule:nonzero;fill:rgb(98.431373%,20.392157%,28.627451%);fill-opacity:1;" d="M 36.949219 5.148438 L 6.339844 5.148438 L 6.339844 1.179688 L 35.722656 1.179688 Z M 36.949219 5.148438 "/>
<path style=" stroke:none;fill-rule:nonzero;fill:rgb(81.960784%,82.745098%,82.745098%);fill-opacity:1;" d="M 35.722656 9.117188 L 43.660156 9.117188 L 35.722656 1.179688 Z M 35.722656 9.117188 "/>
<path style=" stroke:none;fill-rule:nonzero;fill:rgb(20%,24.313725%,28.235294%);fill-opacity:1;" d="M 24.921875 36.675781 L 22.3125 36.675781 L 22.3125 44.214844 L 24.75 44.214844 C 26.007812 44.214844 26.980469 43.875 27.671875 43.195312 C 28.367188 42.511719 28.710938 41.542969 28.710938 40.285156 C 28.710938 39.117188 28.382812 38.222656 27.722656 37.601562 C 27.066406 36.984375 26.132812 36.675781 24.921875 36.675781 Z M 26.164062 42.003906 C 25.875 42.363281 25.421875 42.542969 24.804688 42.542969 L 24.347656 42.542969 L 24.347656 38.320312 L 24.941406 38.320312 C 25.5 38.320312 25.914062 38.488281 26.1875 38.820312 C 26.460938 39.152344 26.597656 39.667969 26.597656 40.359375 C 26.597656 41.097656 26.453125 41.644531 26.164062 42.003906 Z M 20.394531 37.300781 C 19.914062 36.882812 19.199219 36.675781 18.25 36.675781 L 15.640625 36.675781 L 15.640625 44.214844 L 17.675781 44.214844 L 17.675781 41.714844 L 18.25 41.714844 C 19.164062 41.714844 19.867188 41.484375 20.367188 41.023438 C 20.863281 40.566406 21.109375 39.914062 21.109375 39.074219 C 21.109375 38.304688 20.871094 37.714844 20.394531 37.300781 Z M 18.777344 39.796875 C 18.597656 39.96875 18.351562 40.054688 18.046875 40.054688 L 17.675781 40.054688 L 17.675781 38.320312 L 18.203125 38.320312 C 18.765625 38.320312 19.046875 38.574219 19.046875 39.082031 C 19.046875 39.386719 18.957031 39.625 18.777344 39.796875 Z M 44.492188 8.285156 L 36.554688 0.34375 C 36.332031 0.125 36.035156 0 35.722656 0 L 6.339844 0 C 5.6875 0 5.160156 0.527344 5.160156 1.179688 L 5.160156 48.820312 C 5.160156 49.472656 5.6875 50 6.339844 50 L 43.660156 50 C 44.3125 50 44.839844 49.472656 44.839844 48.820312 L 44.839844 9.117188 C 44.839844 8.804688 44.714844 8.503906 44.492188 8.285156 Z M 36.898438 4.023438 L 40.816406 7.941406 L 36.898438 7.941406 Z M 7.519531 2.355469 L 34.542969 2.355469 L 34.542969 3.96875 L 7.519531 3.96875 Z M 42.480469 47.644531 L 7.519531 47.644531 L 7.519531 6.328125 L 34.542969 6.328125 L 34.542969 9.117188 C 34.542969 9.769531 35.070312 10.296875 35.722656 10.296875 L 42.480469 10.296875 Z M 30.0625 44.214844 L 32.070312 44.214844 L 32.070312 41.382812 L 34.328125 41.382812 L 34.328125 39.75 L 32.070312 39.75 L 32.070312 38.308594 L 34.519531 38.308594 L 34.519531 36.675781 L 30.0625 36.675781 Z M 30.0625 44.214844 "/>
</g>
</svg>
