<?xml version="1.0" encoding="UTF-8"?>
<svg xmlns="http://www.w3.org/2000/svg" xmlns:xlink="http://www.w3.org/1999/xlink" width="50pt" height="50pt" viewBox="0 0 50 50" version="1.1">
<g id="surface1">
<path style=" stroke:none;fill-rule:nonzero;fill:rgb(91.372549%,91.372549%,87.843137%);fill-opacity:1;" d="M 33.023438 0 L 7.109375 0 C 6.386719 0 5.804688 0.585938 5.804688 1.71875 L 5.804688 49.105469 C 5.804688 49.414062 6.386719 50 7.109375 50 L 42.890625 50 C 43.613281 50 44.195312 49.414062 44.195312 49.105469 L 44.195312 11.585938 C 44.195312 10.964844 44.113281 10.765625 43.96875 10.617188 L 33.578125 0.230469 C 33.429688 0.0820312 33.230469 0 33.023438 0 Z M 33.023438 0 "/>
<path style=" stroke:none;fill-rule:nonzero;fill:rgb(85.098039%,84.313725%,79.215686%);fill-opacity:1;" d="M 33.480469 0.136719 L 33.480469 10.714844 L 44.0625 10.714844 Z M 33.480469 0.136719 "/>
<path style=" stroke:none;fill-rule:nonzero;fill:rgb(80%,29.411765%,29.803922%);fill-opacity:1;" d="M 17.421875 29.753906 C 17.113281 29.753906 16.8125 29.652344 16.558594 29.460938 C 15.628906 28.765625 15.503906 27.988281 15.5625 27.460938 C 15.726562 26.007812 17.523438 24.484375 20.90625 22.9375 C 22.25 19.992188 23.527344 16.367188 24.289062 13.335938 C 23.398438 11.398438 22.53125 8.882812 23.164062 7.40625 C 23.386719 6.890625 23.660156 6.492188 24.175781 6.320312 C 24.378906 6.253906 24.894531 6.167969 25.082031 6.167969 C 25.535156 6.167969 25.929688 6.746094 26.210938 7.105469 C 26.472656 7.441406 27.070312 8.152344 25.875 13.175781 C 27.082031 15.664062 28.785156 18.195312 30.417969 19.929688 C 31.589844 19.71875 32.597656 19.609375 33.417969 19.609375 C 34.816406 19.609375 35.664062 19.9375 36.007812 20.605469 C 36.292969 21.164062 36.175781 21.8125 35.660156 22.535156 C 35.164062 23.230469 34.476562 23.597656 33.679688 23.597656 C 32.59375 23.597656 31.328125 22.914062 29.917969 21.558594 C 27.386719 22.089844 24.425781 23.03125 22.035156 24.078125 C 21.289062 25.664062 20.574219 26.9375 19.910156 27.875 C 18.992188 29.15625 18.203125 29.753906 17.421875 29.753906 Z M 19.800781 25.175781 C 17.890625 26.25 17.113281 27.128906 17.058594 27.625 C 17.050781 27.707031 17.023438 27.925781 17.441406 28.246094 C 17.574219 28.203125 18.351562 27.847656 19.800781 25.175781 Z M 31.976562 21.210938 C 32.703125 21.769531 32.882812 22.054688 33.355469 22.054688 C 33.566406 22.054688 34.160156 22.042969 34.4375 21.660156 C 34.570312 21.472656 34.621094 21.355469 34.644531 21.289062 C 34.53125 21.230469 34.386719 21.113281 33.59375 21.113281 C 33.144531 21.113281 32.574219 21.132812 31.976562 21.210938 Z M 25.304688 15.332031 C 24.667969 17.542969 23.824219 19.925781 22.917969 22.085938 C 24.785156 21.363281 26.8125 20.730469 28.71875 20.285156 C 27.511719 18.882812 26.308594 17.136719 25.304688 15.332031 Z M 24.765625 7.777344 C 24.675781 7.808594 23.578125 9.347656 24.851562 10.648438 C 25.699219 8.761719 24.800781 7.765625 24.765625 7.777344 Z M 24.765625 7.777344 "/>
<path style=" stroke:none;fill-rule:nonzero;fill:rgb(80%,29.411765%,29.803922%);fill-opacity:1;" d="M 42.890625 50 L 7.109375 50 C 6.386719 50 5.804688 49.414062 5.804688 48.695312 L 5.804688 34.820312 L 44.195312 34.820312 L 44.195312 48.695312 C 44.195312 49.414062 43.613281 50 42.890625 50 Z M 42.890625 50 "/>
<path style=" stroke:none;fill-rule:nonzero;fill:rgb(100%,100%,100%);fill-opacity:1;" d="M 15.523438 47.320312 L 14.058594 47.320312 L 14.058594 38.324219 L 16.644531 38.324219 C 17.027344 38.324219 17.40625 38.386719 17.78125 38.507812 C 18.152344 38.628906 18.488281 38.8125 18.785156 39.058594 C 19.082031 39.300781 19.324219 39.597656 19.507812 39.941406 C 19.691406 40.289062 19.78125 40.675781 19.78125 41.109375 C 19.78125 41.5625 19.703125 41.976562 19.550781 42.347656 C 19.394531 42.71875 19.179688 43.03125 18.902344 43.28125 C 18.625 43.53125 18.292969 43.730469 17.902344 43.867188 C 17.511719 44.003906 17.078125 44.074219 16.609375 44.074219 L 15.519531 44.074219 L 15.519531 47.320312 Z M 15.523438 39.4375 L 15.523438 43 L 16.863281 43 C 17.042969 43 17.21875 42.96875 17.394531 42.90625 C 17.570312 42.847656 17.730469 42.746094 17.878906 42.609375 C 18.023438 42.46875 18.144531 42.277344 18.230469 42.03125 C 18.320312 41.78125 18.367188 41.472656 18.367188 41.109375 C 18.367188 40.960938 18.34375 40.792969 18.304688 40.601562 C 18.265625 40.410156 18.179688 40.226562 18.054688 40.050781 C 17.929688 39.878906 17.75 39.730469 17.523438 39.613281 C 17.296875 39.496094 16.996094 39.4375 16.621094 39.4375 Z M 15.523438 39.4375 "/>
<path style=" stroke:none;fill-rule:nonzero;fill:rgb(100%,100%,100%);fill-opacity:1;" d="M 28.765625 42.574219 C 28.765625 43.3125 28.6875 43.945312 28.527344 44.472656 C 28.371094 44.996094 28.167969 45.4375 27.925781 45.789062 C 27.679688 46.144531 27.40625 46.421875 27.101562 46.625 C 26.792969 46.832031 26.5 46.980469 26.214844 47.085938 C 25.929688 47.1875 25.667969 47.25 25.433594 47.28125 C 25.199219 47.308594 25.023438 47.320312 24.910156 47.320312 L 21.503906 47.320312 L 21.503906 38.324219 L 24.214844 38.324219 C 24.96875 38.324219 25.636719 38.445312 26.207031 38.683594 C 26.78125 38.925781 27.257812 39.246094 27.636719 39.644531 C 28.015625 40.042969 28.296875 40.496094 28.484375 41.003906 C 28.671875 41.511719 28.765625 42.035156 28.765625 42.574219 Z M 24.421875 46.246094 C 25.414062 46.246094 26.128906 45.929688 26.570312 45.296875 C 27.007812 44.660156 27.230469 43.742188 27.230469 42.535156 C 27.230469 42.164062 27.183594 41.792969 27.09375 41.425781 C 27.003906 41.058594 26.832031 40.730469 26.574219 40.429688 C 26.320312 40.132812 25.972656 39.894531 25.53125 39.710938 C 25.09375 39.527344 24.523438 39.4375 23.824219 39.4375 L 22.96875 39.4375 L 22.96875 46.246094 Z M 24.421875 46.246094 "/>
<path style=" stroke:none;fill-rule:nonzero;fill:rgb(100%,100%,100%);fill-opacity:1;" d="M 32.378906 39.4375 L 32.378906 42.269531 L 36.140625 42.269531 L 36.140625 43.269531 L 32.378906 43.269531 L 32.378906 47.320312 L 30.890625 47.320312 L 30.890625 38.324219 L 36.519531 38.324219 L 36.519531 39.4375 Z M 32.378906 39.4375 "/>
</g>
</svg>
