<?xml version="1.0" encoding="UTF-8"?>
<svg xmlns="http://www.w3.org/2000/svg" xmlns:xlink="http://www.w3.org/1999/xlink" width="50pt" height="50pt" viewBox="0 0 50 50" version="1.1">
<g id="surface1">
<path style=" stroke:none;fill-rule:nonzero;fill:rgb(0%,0%,0%);fill-opacity:1;" d="M 41.140625 28.800781 C 40.472656 28.144531 38.992188 27.796875 36.742188 27.765625 C 35.21875 27.75 33.386719 27.882812 31.457031 28.152344 C 30.59375 27.65625 29.707031 27.113281 29.007812 26.460938 C 27.128906 24.707031 25.558594 22.269531 24.582031 19.589844 C 24.644531 19.339844 24.699219 19.121094 24.75 18.898438 C 24.75 18.898438 25.808594 12.882812 25.527344 10.851562 C 25.488281 10.574219 25.464844 10.492188 25.390625 10.277344 L 25.296875 10.039062 C 25.011719 9.375 24.445312 8.671875 23.5625 8.710938 L 23.042969 8.691406 L 23.027344 8.691406 C 22.039062 8.691406 21.238281 9.199219 21.023438 9.953125 C 20.382812 12.320312 21.046875 15.859375 22.246094 20.445312 L 21.9375 21.191406 C 21.078125 23.285156 20.003906 25.394531 19.050781 27.257812 L 18.929688 27.5 C 17.929688 29.457031 17.023438 31.117188 16.199219 32.523438 L 15.351562 32.972656 C 15.289062 33.003906 13.835938 33.773438 13.492188 33.980469 C 10.597656 35.710938 8.679688 37.671875 8.359375 39.230469 C 8.257812 39.726562 8.335938 40.363281 8.851562 40.65625 L 9.671875 41.070312 C 10.027344 41.246094 10.402344 41.339844 10.789062 41.339844 C 12.851562 41.339844 15.242188 38.769531 18.542969 33.015625 C 22.347656 31.773438 26.683594 30.746094 30.484375 30.175781 C 33.378906 31.804688 36.941406 32.9375 39.1875 32.9375 C 39.585938 32.9375 39.929688 32.902344 40.210938 32.828125 C 40.640625 32.710938 41.003906 32.464844 41.226562 32.132812 C 41.660156 31.476562 41.75 30.574219 41.632812 29.648438 C 41.597656 29.371094 41.375 29.03125 41.140625 28.800781 Z M 10.339844 39.773438 C 10.714844 38.746094 12.207031 36.710938 14.40625 34.910156 C 14.542969 34.796875 14.886719 34.476562 15.199219 34.179688 C 12.894531 37.851562 11.355469 39.3125 10.339844 39.773438 Z M 23.375 9.757812 C 24.039062 9.757812 24.414062 11.425781 24.445312 12.992188 C 24.476562 14.558594 24.113281 15.660156 23.65625 16.472656 C 23.28125 15.269531 23.097656 13.371094 23.097656 12.128906 C 23.097656 12.128906 23.070312 9.757812 23.375 9.757812 Z M 19.488281 31.148438 C 19.949219 30.320312 20.429688 29.449219 20.921875 28.523438 C 22.117188 26.261719 22.871094 24.492188 23.4375 23.035156 C 24.554688 25.070312 25.949219 26.804688 27.589844 28.191406 C 27.792969 28.363281 28.007812 28.539062 28.238281 28.710938 C 24.902344 29.371094 22.023438 30.171875 19.488281 31.148438 Z M 40.5 30.960938 C 40.296875 31.085938 39.714844 31.160156 39.339844 31.160156 C 38.132812 31.160156 36.640625 30.609375 34.546875 29.710938 C 35.351562 29.652344 36.089844 29.621094 36.75 29.621094 C 37.960938 29.621094 38.320312 29.613281 39.503906 29.917969 C 40.6875 30.21875 40.703125 30.832031 40.5 30.960938 Z M 44.140625 9.742188 L 37.160156 2.765625 C 35.640625 1.242188 32.636719 0 30.488281 0 L 7.035156 0 C 4.886719 0 3.125 1.757812 3.125 3.910156 L 3.125 46.121094 C 3.125 48.273438 4.886719 50.03125 7.035156 50.03125 L 42.996094 50.03125 C 45.144531 50.03125 46.902344 48.273438 46.902344 46.121094 L 46.902344 16.417969 C 46.90625 14.265625 45.660156 11.265625 44.140625 9.742188 Z M 41.929688 11.953125 C 42.082031 12.109375 42.234375 12.296875 42.382812 12.507812 L 34.398438 12.507812 L 34.398438 4.523438 C 34.609375 4.667969 34.796875 4.820312 34.949219 4.976562 Z M 43.777344 46.121094 C 43.777344 46.546875 43.417969 46.90625 42.996094 46.90625 L 7.035156 46.90625 C 6.613281 46.90625 6.253906 46.546875 6.253906 46.121094 L 6.253906 3.910156 C 6.253906 3.484375 6.613281 3.128906 7.035156 3.128906 L 30.488281 3.128906 C 30.722656 3.128906 30.988281 3.15625 31.269531 3.210938 L 31.269531 15.636719 L 43.695312 15.636719 C 43.746094 15.914062 43.777344 16.179688 43.777344 16.417969 Z M 43.777344 46.121094 "/>
</g>
</svg>
