<?xml version="1.0" encoding="UTF-8"?>
<svg xmlns="http://www.w3.org/2000/svg" xmlns:xlink="http://www.w3.org/1999/xlink" width="50pt" height="50pt" viewBox="0 0 50 50" version="1.1">
<g id="surface1">
<path style=" stroke:none;fill-rule:nonzero;fill:rgb(88.627451%,89.803922%,90.588235%);fill-opacity:1;" d="M 12.5 0 C 10.78125 0 9.375 1.40625 9.375 3.125 L 9.375 46.875 C 9.375 48.59375 10.78125 50 12.5 50 L 43.75 50 C 45.46875 50 46.875 48.59375 46.875 46.875 L 46.875 12.5 L 34.375 0 Z M 12.5 0 "/>
<path style=" stroke:none;fill-rule:nonzero;fill:rgb(69.019608%,71.764706%,74.117647%);fill-opacity:1;" d="M 37.5 12.5 L 46.875 12.5 L 34.375 0 L 34.375 9.375 C 34.375 11.09375 35.78125 12.5 37.5 12.5 Z M 37.5 12.5 "/>
<path style=" stroke:none;fill-rule:nonzero;fill:rgb(79.215686%,81.960784%,84.705882%);fill-opacity:1;" d="M 46.875 21.875 L 37.5 12.5 L 46.875 12.5 Z M 46.875 21.875 "/>
<path style=" stroke:none;fill-rule:nonzero;fill:rgb(94.509804%,33.72549%,25.882353%);fill-opacity:1;" d="M 40.625 40.625 C 40.625 41.484375 39.921875 42.1875 39.0625 42.1875 L 4.6875 42.1875 C 3.828125 42.1875 3.125 41.484375 3.125 40.625 L 3.125 25 C 3.125 24.140625 3.828125 23.4375 4.6875 23.4375 L 39.0625 23.4375 C 39.921875 23.4375 40.625 24.140625 40.625 25 Z M 40.625 40.625 "/>
<path style=" stroke:none;fill-rule:nonzero;fill:rgb(100%,100%,100%);fill-opacity:1;" d="M 9.9375 29.605469 C 9.9375 29.191406 10.261719 28.742188 10.785156 28.742188 L 13.671875 28.742188 C 15.296875 28.742188 16.757812 29.828125 16.757812 31.914062 C 16.757812 33.890625 15.296875 34.988281 13.671875 34.988281 L 11.585938 34.988281 L 11.585938 36.640625 C 11.585938 37.1875 11.234375 37.5 10.785156 37.5 C 10.371094 37.5 9.9375 37.1875 9.9375 36.640625 Z M 11.585938 30.316406 L 11.585938 33.429688 L 13.671875 33.429688 C 14.507812 33.429688 15.171875 32.6875 15.171875 31.914062 C 15.171875 31.039062 14.507812 30.316406 13.671875 30.316406 Z M 11.585938 30.316406 "/>
<path style=" stroke:none;fill-rule:nonzero;fill:rgb(100%,100%,100%);fill-opacity:1;" d="M 19.203125 37.5 C 18.792969 37.5 18.34375 37.273438 18.34375 36.726562 L 18.34375 29.628906 C 18.34375 29.179688 18.792969 28.855469 19.203125 28.855469 L 22.066406 28.855469 C 27.773438 28.855469 27.648438 37.5 22.179688 37.5 Z M 19.992188 30.378906 L 19.992188 35.976562 L 22.066406 35.976562 C 25.4375 35.976562 25.589844 30.378906 22.066406 30.378906 Z M 19.992188 30.378906 "/>
<path style=" stroke:none;fill-rule:nonzero;fill:rgb(100%,100%,100%);fill-opacity:1;" d="M 29.675781 30.480469 L 29.675781 32.464844 L 32.859375 32.464844 C 33.3125 32.464844 33.761719 32.914062 33.761719 33.351562 C 33.761719 33.765625 33.3125 34.101562 32.859375 34.101562 L 29.675781 34.101562 L 29.675781 36.726562 C 29.675781 37.164062 29.363281 37.5 28.925781 37.5 C 28.375 37.5 28.039062 37.164062 28.039062 36.726562 L 28.039062 29.628906 C 28.039062 29.179688 28.378906 28.851562 28.925781 28.851562 L 33.3125 28.851562 C 33.863281 28.851562 34.1875 29.179688 34.1875 29.628906 C 34.1875 30.027344 33.863281 30.476562 33.3125 30.476562 L 29.675781 30.476562 Z M 29.675781 30.480469 "/>
<path style=" stroke:none;fill-rule:nonzero;fill:rgb(79.215686%,81.960784%,84.705882%);fill-opacity:1;" d="M 39.0625 42.1875 L 9.375 42.1875 L 9.375 43.75 L 39.0625 43.75 C 39.921875 43.75 40.625 43.046875 40.625 42.1875 L 40.625 40.625 C 40.625 41.484375 39.921875 42.1875 39.0625 42.1875 Z M 39.0625 42.1875 "/>
</g>
</svg>
