<?xml version="1.0" encoding="UTF-8"?>
<svg xmlns="http://www.w3.org/2000/svg" xmlns:xlink="http://www.w3.org/1999/xlink" width="50pt" height="50pt" viewBox="0 0 50 50" version="1.1">
<g id="surface1">
<path style=" stroke:none;fill-rule:nonzero;fill:rgb(95.294118%,93.333333%,91.372549%);fill-opacity:1;" d="M 30.957031 0 L 7.324219 0 L 7.324219 50 L 42.675781 50 L 42.675781 11.71875 L 34.375 8.789062 Z M 30.957031 0 "/>
<path style=" stroke:none;fill-rule:nonzero;fill:rgb(91.372549%,87.45098%,85.490196%);fill-opacity:1;" d="M 30.957031 0 L 25 0 L 25 50 L 42.675781 50 L 42.675781 11.71875 L 34.375 8.789062 Z M 30.957031 0 "/>
<path style=" stroke:none;fill-rule:nonzero;fill:rgb(85.490196%,81.568627%,79.607843%);fill-opacity:1;" d="M 30.957031 11.71875 L 42.675781 11.71875 L 30.957031 0 Z M 30.957031 11.71875 "/>
<path style=" stroke:none;fill-rule:nonzero;fill:rgb(100%,29.411765%,0%);fill-opacity:1;" d="M 3.90625 19.042969 L 46.09375 19.042969 L 46.09375 41.113281 L 3.90625 41.113281 Z M 3.90625 19.042969 "/>
<path style=" stroke:none;fill-rule:nonzero;fill:rgb(86.666667%,20.392157%,0%);fill-opacity:1;" d="M 25 19.042969 L 46.09375 19.042969 L 46.09375 41.113281 L 25 41.113281 Z M 25 19.042969 "/>
<path style=" stroke:none;fill-rule:nonzero;fill:rgb(100%,95.294118%,95.294118%);fill-opacity:1;" d="M 13.914062 23.632812 L 9.570312 23.632812 L 9.570312 36.914062 L 12.5 36.914062 L 12.5 32.519531 L 13.914062 32.519531 C 16.367188 32.519531 18.359375 30.527344 18.359375 28.078125 C 18.359375 25.625 16.367188 23.632812 13.914062 23.632812 Z M 13.914062 29.589844 L 12.5 29.589844 L 12.5 26.5625 L 13.914062 26.5625 C 14.75 26.5625 15.429688 27.242188 15.429688 28.078125 C 15.429688 28.910156 14.75 29.589844 13.914062 29.589844 Z M 13.914062 29.589844 "/>
<path style=" stroke:none;fill-rule:nonzero;fill:rgb(100%,95.294118%,95.294118%);fill-opacity:1;" d="M 24.21875 23.632812 L 21.289062 23.632812 L 21.289062 36.914062 L 24.21875 36.914062 C 27.449219 36.914062 30.078125 34.285156 30.078125 31.054688 L 30.078125 29.492188 C 30.078125 26.261719 27.449219 23.632812 24.21875 23.632812 Z M 27.148438 31.054688 C 27.148438 32.671875 25.835938 33.984375 24.21875 33.984375 L 24.21875 26.5625 C 25.835938 26.5625 27.148438 27.875 27.148438 29.492188 Z M 27.148438 31.054688 "/>
<path style=" stroke:none;fill-rule:nonzero;fill:rgb(91.372549%,87.45098%,85.490196%);fill-opacity:1;" d="M 25 23.6875 L 25 26.667969 C 26.238281 27.011719 27.148438 28.148438 27.148438 29.492188 L 27.148438 31.054688 C 27.148438 32.398438 26.238281 33.535156 25 33.878906 L 25 36.859375 C 27.863281 36.476562 30.078125 34.019531 30.078125 31.054688 L 30.078125 29.492188 C 30.078125 26.527344 27.863281 24.070312 25 23.6875 Z M 25 23.6875 "/>
<path style=" stroke:none;fill-rule:nonzero;fill:rgb(91.372549%,87.45098%,85.490196%);fill-opacity:1;" d="M 40.527344 26.5625 L 40.527344 23.632812 L 33.203125 23.632812 L 33.203125 36.914062 L 36.132812 36.914062 L 36.132812 32.859375 L 39.0625 32.859375 L 39.0625 29.929688 L 36.132812 29.929688 L 36.132812 26.5625 Z M 40.527344 26.5625 "/>
</g>
</svg>
