<?xml version="1.0" encoding="UTF-8"?>
<svg xmlns="http://www.w3.org/2000/svg" xmlns:xlink="http://www.w3.org/1999/xlink" width="50pt" height="61pt" viewBox="0 0 50 61" version="1.1">
<g id="surface1">
<path style=" stroke:none;fill-rule:nonzero;fill:rgb(100%,12.941176%,8.627451%);fill-opacity:1;" d="M 6.347656 0 C 2.847656 0 0 2.832031 0 6.304688 L 0 54.71875 C 0 58.191406 2.847656 61.023438 6.347656 61.023438 L 43.625 61.023438 C 47.121094 61.023438 49.96875 58.191406 49.96875 54.71875 L 49.96875 14.910156 C 49.96875 14.910156 50.070312 13.742188 49.558594 12.609375 C 49.082031 11.546875 48.304688 10.804688 48.304688 10.804688 C 48.300781 10.800781 48.300781 10.800781 48.296875 10.796875 L 39.050781 1.789062 C 39.042969 1.78125 39.039062 1.777344 39.035156 1.773438 C 39.035156 1.773438 38.246094 1.027344 37.074219 0.527344 C 35.695312 -0.0585938 34.273438 0.00390625 34.273438 0.00390625 L 34.296875 0 Z M 6.347656 0 "/>
<path style=" stroke:none;fill-rule:nonzero;fill:rgb(96.078431%,96.078431%,96.078431%);fill-opacity:1;" d="M 6.347656 2.070312 L 34.296875 2.070312 C 34.304688 2.070312 34.308594 2.070312 34.316406 2.070312 C 34.316406 2.070312 35.433594 2.082031 36.253906 2.429688 C 37.039062 2.765625 37.597656 3.273438 37.601562 3.277344 C 37.601562 3.277344 37.605469 3.28125 37.605469 3.28125 L 46.832031 12.269531 C 46.832031 12.269531 47.386719 12.851562 47.65625 13.453125 C 47.875 13.933594 47.886719 14.820312 47.886719 14.820312 C 47.886719 14.835938 47.886719 14.851562 47.886719 14.863281 L 47.886719 54.71875 C 47.886719 57.082031 46.003906 58.953125 43.625 58.953125 L 6.347656 58.953125 C 3.964844 58.953125 2.085938 57.082031 2.085938 54.71875 L 2.085938 6.304688 C 2.085938 3.941406 3.964844 2.070312 6.347656 2.070312 Z M 6.347656 2.070312 "/>
<path style=" stroke:none;fill-rule:nonzero;fill:rgb(100%,12.941176%,8.627451%);fill-opacity:1;" d="M 12.476562 36.332031 C 11.042969 34.90625 12.59375 32.949219 16.808594 30.871094 L 19.457031 29.5625 L 20.492188 27.320312 C 21.058594 26.085938 21.90625 24.070312 22.375 22.84375 L 23.226562 20.613281 L 22.640625 18.960938 C 21.917969 16.933594 21.660156 13.882812 22.117188 12.785156 C 22.738281 11.300781 24.769531 11.453125 25.570312 13.042969 C 26.199219 14.289062 26.132812 16.539062 25.390625 19.382812 L 24.78125 21.710938 L 25.316406 22.617188 C 25.613281 23.113281 26.476562 24.296875 27.234375 25.246094 L 28.664062 27.007812 L 30.441406 26.777344 C 36.082031 26.046875 38.015625 27.289062 38.015625 29.070312 C 38.015625 31.320312 33.585938 31.507812 29.863281 28.910156 C 29.027344 28.328125 28.453125 27.746094 28.453125 27.746094 C 28.453125 27.746094 26.121094 28.21875 24.972656 28.527344 C 23.789062 28.84375 23.199219 29.042969 21.460938 29.625 C 21.460938 29.625 20.855469 30.5 20.457031 31.140625 C 18.980469 33.515625 17.257812 35.480469 16.027344 36.199219 C 14.648438 37 13.203125 37.054688 12.476562 36.332031 Z M 14.730469 35.535156 C 15.535156 35.039062 17.167969 33.121094 18.296875 31.34375 L 18.753906 30.621094 L 16.671875 31.660156 C 13.453125 33.269531 11.984375 34.78125 12.75 35.699219 C 13.179688 36.210938 13.691406 36.171875 14.730469 35.535156 Z M 35.625 29.707031 C 36.414062 29.160156 36.300781 28.054688 35.410156 27.609375 C 34.714844 27.261719 34.15625 27.191406 32.351562 27.214844 C 31.246094 27.292969 29.464844 27.511719 29.160156 27.582031 C 29.160156 27.582031 30.140625 28.253906 30.574219 28.5 C 31.152344 28.828125 32.558594 29.4375 33.585938 29.75 C 34.597656 30.054688 35.183594 30.023438 35.625 29.707031 Z M 27.222656 26.242188 C 26.746094 25.742188 25.933594 24.703125 25.417969 23.929688 C 24.746094 23.050781 24.410156 22.433594 24.410156 22.433594 C 24.410156 22.433594 23.917969 24.003906 23.511719 24.949219 L 22.253906 28.042969 L 21.890625 28.742188 C 21.890625 28.742188 23.828125 28.113281 24.816406 27.855469 C 25.863281 27.585938 27.988281 27.167969 27.988281 27.167969 Z M 24.515625 15.457031 C 24.636719 14.441406 24.6875 13.429688 24.359375 12.917969 C 23.449219 11.929688 22.351562 12.753906 22.539062 15.101562 C 22.601562 15.894531 22.796875 17.246094 23.0625 18.078125 L 23.542969 19.59375 L 23.882812 18.453125 C 24.066406 17.824219 24.351562 16.476562 24.515625 15.457031 Z M 24.515625 15.457031 "/>
<path style=" stroke:none;fill-rule:nonzero;fill:rgb(17.254902%,17.254902%,17.254902%);fill-opacity:1;" d="M 14.917969 42.929688 L 17.246094 42.929688 C 17.992188 42.929688 18.59375 43 19.058594 43.144531 C 19.523438 43.28125 19.914062 43.585938 20.230469 44.066406 C 20.546875 44.542969 20.707031 45.113281 20.707031 45.785156 C 20.707031 46.402344 20.578125 46.929688 20.320312 47.371094 C 20.0625 47.816406 19.714844 48.132812 19.277344 48.332031 C 18.847656 48.527344 18.179688 48.625 17.28125 48.625 L 16.472656 48.625 L 16.472656 52.273438 L 14.917969 52.273438 Z M 16.472656 44.128906 L 16.472656 47.386719 L 17.246094 47.386719 C 17.933594 47.386719 18.410156 47.257812 18.671875 47.003906 C 18.9375 46.746094 19.074219 46.332031 19.074219 45.757812 C 19.074219 45.328125 18.984375 44.980469 18.8125 44.71875 C 18.636719 44.449219 18.441406 44.285156 18.230469 44.222656 C 18.023438 44.160156 17.695312 44.128906 17.246094 44.128906 Z M 16.472656 44.128906 "/>
<path style=" stroke:none;fill-rule:nonzero;fill:rgb(17.254902%,17.254902%,17.254902%);fill-opacity:1;" d="M 21.898438 42.929688 L 24.011719 42.929688 C 25.039062 42.929688 25.855469 43.109375 26.46875 43.472656 C 27.082031 43.832031 27.546875 44.367188 27.859375 45.078125 C 28.175781 45.792969 28.335938 46.582031 28.335938 47.449219 C 28.335938 48.359375 28.191406 49.175781 27.90625 49.890625 C 27.625 50.601562 27.195312 51.175781 26.613281 51.617188 C 26.03125 52.054688 25.207031 52.273438 24.128906 52.273438 L 21.898438 52.273438 Z M 23.457031 44.167969 L 23.457031 51.035156 L 24.101562 51.035156 C 25.007812 51.035156 25.664062 50.722656 26.074219 50.101562 C 26.484375 49.476562 26.6875 48.644531 26.6875 47.605469 C 26.6875 45.316406 25.824219 44.167969 24.101562 44.167969 Z M 23.457031 44.167969 "/>
<path style=" stroke:none;fill-rule:nonzero;fill:rgb(17.254902%,17.254902%,17.254902%);fill-opacity:1;" d="M 29.828125 42.929688 L 35.054688 42.929688 L 35.054688 44.167969 L 31.386719 44.167969 L 31.386719 46.960938 L 34.324219 46.960938 L 34.324219 48.199219 L 31.386719 48.199219 L 31.386719 52.273438 L 29.828125 52.273438 Z M 29.828125 42.929688 "/>
</g>
</svg>
