<?xml version="1.0" encoding="UTF-8"?>
<svg xmlns="http://www.w3.org/2000/svg" xmlns:xlink="http://www.w3.org/1999/xlink" width="50pt" height="50pt" viewBox="0 0 50 50" version="1.1">
<g id="surface1">
<path style=" stroke:none;fill-rule:nonzero;fill:rgb(88.235294%,90.196078%,91.372549%);fill-opacity:1;" d="M 9.765625 0 L 1.667969 8.097656 L 1.667969 50 L 38.332031 50 L 38.332031 0 Z M 9.765625 0 "/>
<path style=" stroke:none;fill-rule:nonzero;fill:rgb(89.803922%,38.823529%,32.54902%);fill-opacity:1;" d="M 33.777344 34.507812 C 32.960938 33.570312 31.761719 32.921875 30.410156 32.679688 C 28.269531 32.296875 26.234375 32.15625 24.324219 32.191406 C 22.585938 30.433594 20.90625 28.363281 19.757812 26.085938 C 20.761719 22.777344 21.292969 19.914062 21.59375 18.304688 C 21.746094 17.472656 21.515625 16.59375 20.976562 15.945312 C 20.46875 15.332031 19.730469 14.980469 18.957031 14.980469 C 18.957031 14.980469 18.953125 14.980469 18.953125 14.980469 C 18.199219 14.980469 17.558594 15.289062 17.101562 15.871094 C 15.570312 17.824219 16.617188 22.546875 16.84375 23.476562 C 17.074219 24.417969 17.402344 25.335938 17.808594 26.222656 C 17.011719 28.730469 15.9375 31.453125 14.488281 34.03125 C 9.640625 35.796875 6.753906 38.226562 6.515625 38.433594 C 5.710938 39.214844 5.3125 40 5.332031 40.769531 C 5.347656 41.203125 5.503906 41.847656 6.179688 42.4375 C 6.699219 42.890625 7.363281 43.117188 8.039062 43.117188 C 8.722656 43.117188 9.417969 42.882812 9.984375 42.417969 C 12.324219 40.492188 14.199219 38.105469 15.703125 35.566406 C 17.957031 34.800781 20.621094 34.195312 23.621094 34.050781 C 25.78125 36.140625 27.929688 37.734375 29.28125 38.660156 C 30.714844 39.644531 32.628906 39.515625 33.835938 38.359375 C 34.964844 37.273438 34.941406 35.835938 33.777344 34.507812 Z M 8.824219 41.011719 C 8.390625 41.367188 7.753906 41.390625 7.378906 41.0625 C 7.234375 40.9375 7.160156 40.820312 7.15625 40.71875 C 7.15625 40.636719 7.195312 40.316406 7.746094 39.777344 C 7.785156 39.742188 9.597656 38.21875 12.757812 36.75 C 11.632812 38.320312 10.332031 39.773438 8.824219 41.011719 Z M 18.535156 17 C 18.628906 16.878906 18.734375 16.804688 18.957031 16.804688 C 19.273438 16.804688 19.480469 16.996094 19.574219 17.109375 C 19.773438 17.347656 19.855469 17.667969 19.800781 17.96875 C 19.582031 19.148438 19.234375 21.015625 18.664062 23.234375 C 18.648438 23.171875 18.628906 23.105469 18.613281 23.042969 C 18.140625 21.09375 17.804688 17.933594 18.535156 17 Z M 16.964844 33.246094 C 17.765625 31.632812 18.433594 30.003906 18.992188 28.425781 C 19.855469 29.828125 20.878906 31.136719 21.957031 32.328125 C 20.15625 32.503906 18.488281 32.832031 16.964844 33.246094 Z M 32.570312 37.042969 C 31.988281 37.605469 31.035156 37.652344 30.3125 37.15625 C 29.320312 36.472656 27.863281 35.410156 26.308594 34.046875 C 27.523438 34.105469 28.785156 34.242188 30.085938 34.476562 C 31.035156 34.644531 31.859375 35.082031 32.40625 35.707031 C 33.117188 36.519531 32.800781 36.820312 32.570312 37.042969 Z M 32.570312 37.042969 "/>
<path style=" stroke:none;fill-rule:nonzero;fill:rgb(92.156863%,94.117647%,95.294118%);fill-opacity:1;" d="M 9.765625 8.097656 L 9.765625 0 L 1.667969 8.097656 Z M 9.765625 8.097656 "/>
<path style=" stroke:none;fill-rule:nonzero;fill:rgb(15.294118%,63.529412%,85.882353%);fill-opacity:1;" d="M 47 13.71875 L 29.667969 13.71875 C 28.929688 13.71875 28.332031 13.121094 28.332031 12.386719 L 28.332031 4.964844 C 28.332031 4.226562 28.929688 3.632812 29.667969 3.632812 L 47 3.632812 C 47.738281 3.632812 48.332031 4.226562 48.332031 4.964844 L 48.332031 12.386719 C 48.332031 13.121094 47.738281 13.71875 47 13.71875 Z M 47 13.71875 "/>
<path style=" stroke:none;fill-rule:nonzero;fill:rgb(92.156863%,94.117647%,95.294118%);fill-opacity:1;" d="M 34.382812 6.367188 C 34.769531 6.691406 34.964844 7.195312 34.964844 7.871094 C 34.964844 8.546875 34.765625 9.042969 34.371094 9.359375 C 33.972656 9.675781 33.363281 9.832031 32.542969 9.832031 L 31.550781 9.832031 L 31.550781 11.472656 L 30.605469 11.472656 L 30.605469 5.878906 L 32.527344 5.878906 C 33.375 5.878906 33.992188 6.042969 34.382812 6.367188 Z M 33.714844 8.675781 C 33.902344 8.476562 33.996094 8.183594 33.996094 7.796875 C 33.996094 7.410156 33.878906 7.136719 33.636719 6.976562 C 33.398438 6.816406 33.023438 6.734375 32.507812 6.734375 L 31.550781 6.734375 L 31.550781 8.976562 L 32.644531 8.976562 C 33.167969 8.976562 33.523438 8.875 33.714844 8.675781 Z M 33.714844 8.675781 "/>
<path style=" stroke:none;fill-rule:nonzero;fill:rgb(92.156863%,94.117647%,95.294118%);fill-opacity:1;" d="M 40.308594 6.613281 C 40.847656 7.097656 41.117188 7.777344 41.117188 8.648438 C 41.117188 9.515625 40.855469 10.203125 40.332031 10.710938 C 39.8125 11.21875 39.011719 11.472656 37.933594 11.472656 L 36.078125 11.472656 L 36.078125 5.878906 L 37.996094 5.878906 C 39 5.878906 39.769531 6.125 40.308594 6.613281 Z M 40.164062 8.671875 C 40.164062 7.390625 39.433594 6.75 37.964844 6.75 L 37.019531 6.75 L 37.019531 10.582031 L 38.070312 10.582031 C 38.746094 10.582031 39.265625 10.421875 39.625 10.097656 C 39.984375 9.777344 40.164062 9.300781 40.164062 8.671875 Z M 40.164062 8.671875 "/>
<path style=" stroke:none;fill-rule:nonzero;fill:rgb(92.156863%,94.117647%,95.294118%);fill-opacity:1;" d="M 43.277344 6.757812 L 43.277344 8.296875 L 45.757812 8.296875 L 45.757812 9.167969 L 43.277344 9.167969 L 43.277344 11.472656 L 42.332031 11.472656 L 42.332031 5.878906 L 46.0625 5.878906 L 46.054688 6.757812 Z M 43.277344 6.757812 "/>
</g>
</svg>
