<svg height="36" width="133" xmlns="http://www.w3.org/2000/svg"><g fill="#fff" fill-rule="evenodd"><path d="m3 10.75v14.5l12.5 7.25 12.5-7.25v-14.5l-12.5-7.25zm27.133-2.253c.479.278.867.948.867 1.496v16.014c0 .548-.383 1.215-.867 1.496l-13.766 7.994c-.479.278-1.25.28-1.734 0l-13.766-7.994c-.479-.278-.867-.948-.867-1.496v-16.014c0-.548.383-1.215.867-1.496l13.766-7.994c.479-.278 1.25-.28 1.734 0z"/><path d="m17.996 18.245c.554 0 1.004.45 1.004 1.004v1.962c0 1.39-.992 2.556-2.333 2.878v10.911h-2.334v-10.912c-1.34-.32-2.333-1.486-2.333-2.876v-1.962c0-.555.448-1.004 1.004-1.004h.163v-1.766s-.04-.481.48-.481.52.481.52.481v1.764h2.666v-1.762s-.008-.482.497-.482.504.481.504.481v1.763h.163zm-10.144-3.058.86.527.112.07a.487.487 0 0 0 .679-.182l.635-1.106a.518.518 0 0 0 -.172-.701l-.112-.07-.86-.526-5.454-3.343-.86-.527-.112-.069a.487.487 0 0 0 -.679.181l-.635 1.106a.518.518 0 0 0 .172.702l.112.069.86.527 5.455 3.342zm14.11-1.988-.86.527-.112.069a.522.522 0 0 0 -.171.701l.635 1.106c.14.244.439.328.678.181l.113-.069.86-.527 5.454-3.342.86-.527.113-.07a.522.522 0 0 0 .171-.7l-.635-1.107a.483.483 0 0 0 -.678-.18l-.113.068-.86.527zm17.956 11.911h-2.312c-.38 0-.571-.19-.571-.57v-12.73c0-.381.19-.571.571-.571h2.312c.381 0 .571.19.571.57v.926h.11c.199-.49.552-.862 1.06-1.116a3.542 3.542 0 0 1 1.605-.38h.979c.363 0 .544.19.544.57v1.878c0 .217-.04.367-.122.448-.082.082-.223.114-.422.096h-1.877c-1.251 0-1.877.707-1.877 2.121v8.187c0 .381-.19.572-.57.572zm16.837 0h-6.011c-1.433 0-2.539-.38-3.319-1.142-.78-.761-1.17-1.858-1.17-3.29v-5.006c0-1.432.39-2.53 1.17-3.291.78-.762 1.886-1.142 3.319-1.142h2.149c1.432 0 2.538.38 3.318 1.142s1.17 1.859 1.17 3.291v3.455c0 .38-.19.57-.572.57h-6.827c-.217 0-.326.1-.326.3v.598c0 .563.122.966.367 1.21.245.246.657.368 1.238.368h5.494c.38 0 .571.2.571.598v1.796c0 .2-.04.34-.122.421-.082.082-.231.123-.449.123zm-6.773-7.724h3.7c.199 0 .299-.1.299-.3v-1.305c0-.58-.118-.988-.354-1.224s-.644-.354-1.224-.354h-1.142c-.58 0-.989.118-1.224.354-.236.236-.354.644-.354 1.224v1.306c0 .2.1.299.3.299zm15.232 7.725h-5.168c-.362 0-.544-.19-.544-.572v-1.739c0-.2.037-.34.11-.422.072-.082.217-.122.434-.122h4.543c.888 0 1.332-.272 1.332-.816v-.136c0-.436-.371-.853-1.115-1.252l-2.693-1.496c-.924-.471-1.604-.979-2.04-1.523-.435-.544-.652-1.242-.652-2.094 0-1.27.335-2.203 1.006-2.802.671-.598 1.723-.897 3.155-.897h4.543c.362 0 .544.19.544.57v1.769c0 .2-.037.34-.11.421-.072.082-.217.123-.434.123h-3.781c-.889 0-1.333.226-1.333.68v.136c0 .399.39.807 1.17 1.224l2.747 1.632c.943.508 1.605 1.029 1.986 1.564.38.535.57 1.237.57 2.108 0 2.43-1.423 3.645-4.27 3.645zm6.964-10.88h-1.088c-.218 0-.368-.037-.45-.11-.08-.072-.122-.217-.122-.434v-1.877c0-.381.19-.571.572-.571h1.088c.199 0 .299-.1.299-.3v-2.584c0-.38.2-.57.598-.57h2.285c.38 0 .571.19.571.57v2.584c0 .2.109.3.327.3h2.121c.38 0 .571.19.571.57v1.878c0 .2-.04.34-.122.421-.082.082-.231.123-.449.123h-2.121c-.218 0-.327.1-.327.299v6.011c0 .562.127.966.38 1.21.255.245.672.368 1.252.368h1.088c.38 0 .571.19.571.57v1.878c0 .2-.04.34-.122.421-.082.082-.231.123-.449.123h-1.66c-1.432 0-2.542-.381-3.331-1.143-.789-.761-1.183-1.85-1.183-3.264v-6.174c0-.2-.1-.3-.3-.3zm12.185 14.579h-2.312c-.38 0-.571-.181-.571-.544v-16.456c0-.381.19-.571.571-.571h2.312c.381 0 .571.19.571.57v.898h.11c.199-.49.552-.856 1.06-1.101a3.65 3.65 0 0 1 1.605-.367h1.115c1.396 0 2.453.38 3.169 1.142s1.074 1.859 1.074 3.291v5.005c0 1.433-.358 2.53-1.074 3.291-.716.762-1.773 1.143-3.169 1.143h-1.115a3.65 3.65 0 0 1 -1.605-.368c-.508-.244-.861-.612-1.06-1.101h-.11v4.624c0 .363-.19.544-.57.544zm2.448-6.691h1.197c.58 0 .993-.123 1.238-.368.244-.244.367-.657.367-1.237v-4.679c0-.58-.123-.992-.367-1.237-.245-.245-.658-.367-1.238-.367h-1.197c-1.251 0-1.877.689-1.877 2.067v3.753c0 1.379.626 2.068 1.877 2.068zm13.845 2.992h-.653c-1.432 0-2.538-.381-3.318-1.143-.78-.761-1.17-1.858-1.17-3.29v-5.006c0-1.432.39-2.53 1.17-3.291.78-.762 1.886-1.142 3.318-1.142h6.283c.4 0 .599.19.599.57v12.73c0 .381-.2.572-.599.572h-2.284c-.381 0-.572-.19-.572-.572v-.897h-.108c-.2.49-.553.857-1.061 1.101a3.65 3.65 0 0 1 -1.605.368zm2.774-5.06v-5.521c0-.2-.108-.3-.326-.3h-2.557c-.58 0-.988.123-1.224.368s-.353.657-.353 1.237v4.679c0 .58.117.993.353 1.237.236.245.644.368 1.224.368h1.007c1.25 0 1.876-.69 1.876-2.068zm15.287 2.639v1.877c0 .2-.04.34-.123.421-.081.082-.23.123-.448.123h-4.053c-1.433 0-2.539-.381-3.319-1.143-.78-.761-1.17-1.858-1.17-3.29v-5.006c0-1.432.39-2.53 1.17-3.291.78-.762 1.886-1.142 3.319-1.142h4.053c.38 0 .57.19.57.57v1.878c0 .2-.04.34-.122.421-.081.082-.23.123-.448.123h-3.51c-.561 0-.965.122-1.21.367-.244.245-.367.657-.367 1.237v4.679c0 .58.123.993.367 1.237.245.245.649.368 1.21.368h3.51c.38 0 .57.19.57.57zm10.282-11.451h2.638c.218 0 .363.063.435.19.073.127.045.29-.081.49l-3.618 5.956v.11l3.78 6.446c.11.181.119.34.028.476-.09.136-.254.204-.49.204h-2.339c-.308 0-.53-.037-.666-.11-.136-.072-.277-.226-.422-.462l-3.454-6.065c-.163-.29-.163-.59 0-.898l3.264-5.793c.2-.363.507-.544.925-.544zm-5.06 13.872h-2.312c-.38 0-.57-.19-.57-.572v-17.979c0-.38.19-.571.57-.571h2.312c.381 0 .572.19.572.571v17.98c0 .38-.19.57-.572.57z"/></g></svg>